<svg width="546" height="546" viewBox="0 0 546 546" fill="none" xmlns="http://www.w3.org/2000/svg">
<g clip-path="url(#clip0_5993_1819)">
<rect width="546" height="546" rx="40" fill="black"/>
<circle cx="273.601" cy="273.399" r="78.6008" transform="rotate(-90 273.601 273.399)" fill="#FFD900"/>
<circle cx="273.6" cy="273.4" r="70.7407" transform="rotate(-90 273.6 273.4)" fill="black"/>
<circle cx="273.601" cy="48.6003" r="78.6008" transform="rotate(-90 273.601 48.6003)" fill="#FFD900"/>
<line x1="219.438" y1="94.9746" x2="219.437" y2="225.452" stroke="#FFD900" stroke-width="8"/>
<line x1="243.016" y1="94.9746" x2="243.016" y2="206.588" stroke="#FFD900" stroke-width="8"/>
<line x1="273.672" y1="94.9746" x2="273.672" y2="199.514" stroke="#FFD900" stroke-width="8"/>
<line x1="304.324" y1="94.9746" x2="304.324" y2="202.658" stroke="#FFD900" stroke-width="8"/>
<line x1="327.906" y1="94.9746" x2="327.906" y2="219.95" stroke="#FFD900" stroke-width="8"/>
<circle cx="273.601" cy="272.601" r="78.6008" fill="#FFD900"/>
<circle cx="273.6" cy="272.602" r="70.7407" fill="black"/>
<circle cx="498.398" cy="272.601" r="78.6008" fill="#FFD900"/>
<line x1="452.023" y1="218.438" x2="321.546" y2="218.437" stroke="#FFD900" stroke-width="8"/>
<line x1="452.023" y1="242.018" x2="340.41" y2="242.018" stroke="#FFD900" stroke-width="8"/>
<line x1="452.023" y1="272.672" x2="347.484" y2="272.672" stroke="#FFD900" stroke-width="8"/>
<line x1="452.023" y1="303.326" x2="344.34" y2="303.326" stroke="#FFD900" stroke-width="8"/>
<line x1="452.023" y1="326.906" x2="327.048" y2="326.906" stroke="#FFD900" stroke-width="8"/>
<circle cx="78.6008" cy="78.6008" r="78.6008" transform="matrix(-1 0 0 1 352 194)" fill="#FFD900"/>
<circle cx="70.7407" cy="70.7407" r="70.7407" transform="matrix(-1 0 0 1 344.141 201.861)" fill="black"/>
<circle cx="78.6008" cy="78.6008" r="78.6008" transform="matrix(-1 0 0 1 127.203 194)" fill="#FFD900"/>
<line y1="-4" x2="130.477" y2="-4" transform="matrix(1 -8.74228e-08 -8.74228e-08 -1 94.9766 214.438)" stroke="#FFD900" stroke-width="8"/>
<line y1="-4" x2="111.613" y2="-4" transform="matrix(1 -8.74228e-08 -8.74228e-08 -1 94.9766 238.018)" stroke="#FFD900" stroke-width="8"/>
<line y1="-4" x2="104.539" y2="-4" transform="matrix(1 -8.74228e-08 -8.74228e-08 -1 94.9766 268.672)" stroke="#FFD900" stroke-width="8"/>
<line y1="-4" x2="107.683" y2="-4" transform="matrix(1 -8.74228e-08 -8.74228e-08 -1 94.9766 299.326)" stroke="#FFD900" stroke-width="8"/>
<line y1="-4" x2="124.975" y2="-4" transform="matrix(1 -8.74228e-08 -8.74228e-08 -1 94.9766 322.906)" stroke="#FFD900" stroke-width="8"/>
<circle cx="273.602" cy="272.601" r="78.6008" transform="rotate(90 273.602 272.601)" fill="#FFD900"/>
<circle cx="273.603" cy="272.6" r="70.7407" transform="rotate(90 273.603 272.6)" fill="black"/>
<circle cx="273.602" cy="497.4" r="78.6008" transform="rotate(90 273.602 497.4)" fill="#FFD900"/>
<line x1="327.766" y1="451.025" x2="327.766" y2="320.548" stroke="#FFD900" stroke-width="8"/>
<line x1="304.188" y1="451.025" x2="304.188" y2="339.412" stroke="#FFD900" stroke-width="8"/>
<line x1="273.531" y1="451.025" x2="273.531" y2="346.486" stroke="#FFD900" stroke-width="8"/>
<line x1="242.879" y1="451.025" x2="242.879" y2="343.342" stroke="#FFD900" stroke-width="8"/>
<line x1="219.297" y1="451.025" x2="219.297" y2="326.05" stroke="#FFD900" stroke-width="8"/>
</g>
<defs>
<clipPath id="clip0_5993_1819">
<rect width="546" height="546" rx="40" fill="white"/>
</clipPath>
</defs>
</svg>
